# xmcd
#
# Track frame offsets:
#	150
#	16352
#	35725
#	51417
#	66454
#	82565
#	96584
#	112126
#	127600
#	141029
#	160633
#	175938
#	192113
#	212516
#	230357
#	251996
#
# Disc length: 3598 seconds
#
# Revision: 1
# Processed by: cddbd v1.5.2PL0 Copyright (c) Steve Scherf et al.
# Submitted via: audiograbber 1.83.01
#
DISCID=db0e0c10
DTITLE=Michael Hirte - Sehnsuchtsmelodien - Die groessten Hits zum Traeumen
DYEAR=2015
DGENRE=Pop
TTITLE0=Fang das Licht
TTITLE1=Nessaja (Ich wollte nie erwachsen sein)
TTITLE2=Ich liebe das Leben
TTITLE3=Stand by me
TTITLE4=Sag mir wo die Blumen sind
TTITLE5=Ganz in weiss
TTITLE6=Von guten Maechten
TTITLE7=Sah ein Knab ein Roeslein stehn
TTITLE8=Hohe Tannen
TTITLE9=Die kleine Kneipe
TTITLE10=Paloma Blanca
TTITLE11=Meine Sehnsucht
TTITLE12=I have a dream
TTITLE13=Amoi seg ma uns wieder
TTITLE14=The Power of Love
TTITLE15=Hinterm Horizont gehts weiter
EXTD=
EXTT0=
EXTT1=
EXTT2=
EXTT3=
EXTT4=
EXTT5=
EXTT6=
EXTT7=
EXTT8=
EXTT9=
EXTT10=
EXTT11=
EXTT12=
EXTT13=
EXTT14=
EXTT15=
PLAYORDER=
